<?xml version="1.0" encoding="utf-8"?>
<!-- Generator: Adobe Illustrator 24.2.3, SVG Export Plug-In . SVG Version: 6.00 Build 0)  -->
<svg version="1.1" id="_x39_4c1f45f-2d92-458e-bbfe-f6c69da92e14"
	 xmlns="http://www.w3.org/2000/svg" xmlns:xlink="http://www.w3.org/1999/xlink" x="0px" y="0px" viewBox="0 0 1034.9 831.6"
	 style="enable-background:new 0 0 1034.9 831.6;" xml:space="preserve">
<style type="text/css">
	.st0{opacity:0.1;fill:#E97B76;enable-background:new    ;}
	.st1{fill:#E6E8EC;}
	.st2{fill:#DCDFED;}
	.st3{opacity:0.1;enable-background:new    ;}
	.st4{fill:#F0473E;}
	.st5{fill:#E3E5F1;}
</style>
<path class="st0" d="M601.3,95.1C535,93.2,471.8,75.3,411.5,55.8S291.3,14.7,226.5,4.3c-41.6-6.6-89.3-7.6-122.8,11
	C71.4,33.2,61,64.1,55.4,92.8c-4.2,21.6-6.7,44.3,4.9,64.4c8,14,22.3,25.8,32.2,39.2c34.3,46.7,10.1,104.3-27.1,149.9
	c-17.4,21.4-37.7,41.8-51.1,64.6S-5.5,459.8,6.2,483c11.7,23,39.5,40.3,69.6,52.5c61.2,24.7,133.3,31.8,203.6,35.8
	c155.6,8.9,312.1,5,468.2,1.2c57.8-1.4,115.8-2.9,172.6-10.3c31.5-4.1,64.1-10.7,87-26.5c29.1-20.1,36.3-54.1,16.8-79.3
	c-32.7-42.2-123-52.7-145.9-98.1c-12.6-25,0.3-52.8,18.6-75.9c39.2-49.6,104.9-93.2,108.4-149.9c2.4-39-29.2-78-78-96.4
	c-51.2-19.3-122.2-16.9-160,15.1C728.2,84.1,659.9,96.8,601.3,95.1z"/>
<ellipse class="st0" cx="435.5" cy="802.3" rx="290.8" ry="29.3"/>
<circle class="st1" cx="689.3" cy="336.1" r="0.4"/>
<path class="st2" d="M499.6,214.4L238,384l170.7,307.8c1.6,2.9,4.4,5,7.6,5.8l154.6,37.7c5.5,1.3,11.1-1.3,13.5-6.4l76.7-159.4
	l84.1-112.4l-199.5-236C534.3,207.7,514.5,204.7,499.6,214.4z"/>
<path class="st3" d="M747.9,458.6l-0.7,1l-49.2,65.8l-0.9,1.2L663.8,571l-65.6,136.3l-1.8,3.8l-9.3,19.2c-2.4,5.1-8.1,7.7-13.6,6.4
	L418.9,699c-3.2-0.8-6-2.9-7.6-5.8l-14.9-26.8l-2.7-4.8L286.5,467.9l-0.9-1.6l-44.9-80.9l5.4-3.5l41.1-26.6l1-0.6l86.5-56.1l5.5-3.5
	l122-79.2c14.9-9.7,34.7-6.8,46.2,6.8l91,107.7l4,4.8l66.1,78.1l0.4,0.4l33.2,39.3l4.2,5L747.9,458.6z"/>
<path class="st3" d="M707.3,412.3l-8.1,56l-2.4,16.9l-1.4,36l-0.1,2.8L688,712.1c-0.3,6.6-5.8,11.7-12.4,11.4
	c-0.7,0-1.4-0.1-2.1-0.3l-77.9-17.4l-0.8-0.2l-199.9-44.6l-3.7-0.8l-109.9-24.5l2.5-169.1l0.1-5.6l0.8-51.2l0.8-56.5l86.5-56.1
	l5.5-3.5c80.3,8.2,187,24.1,259.3,35.4l4,4.8l66,78.1L707.3,412.3z"/>
<path class="st4" d="M716.4,345.9l-9.5,66l-8.7,60.4l-2.4,16.9l-1.4,36L687,716.1c-0.3,6.6-5.8,11.7-12.4,11.4
	c-0.7,0-1.4-0.1-2.1-0.3l-78.8-17.6l-199.9-44.6l-113.6-25.4l2.6-174.8l0.8-51.2l0.9-59.9l0.9-61.6c18.8-0.9,49.7,1.1,86.6,4.8
	c82.6,8.3,195.2,25.1,268.8,36.6C685.9,340.8,716.4,345.9,716.4,345.9z"/>
<path class="st3" d="M740.5,451.6l-42.3,20.7L482.5,578.1L283.7,413.8l-40.2-33.3L238,384l44.9,80.9l-2.6,174.8l113.6,25.4
	l14.8,26.8c1.6,2.9,4.4,5,7.6,5.8l154.6,37.7c5.5,1.3,11.1-1.4,13.5-6.4l9.3-19.2l78.8,17.6c6.4,1.4,12.8-2.6,14.2-9.1
	c0.2-0.7,0.2-1.4,0.3-2.1l7.3-190.9l50.1-67l0.1-1.7L740.5,451.6z"/>
<path class="st2" d="M238,384l-17.8,305.3c-0.3,5.8,3.6,11.1,9.3,12.3L703,806.9c6.4,1.4,12.8-2.7,14.2-9.1c0.1-0.5,0.2-1,0.2-1.6
	l27.8-339L482.5,586.1L238,384z"/>
<path class="st3" d="M223.5,696.4l246-151.8c7.5-4.6,17.2-3,23,3.6L712.7,805c0.8,0.9,1.2,0.3,0,0L223.5,696.4
	C222.1,696.1,222.2,697.1,223.5,696.4z"/>
<path class="st5" d="M225.2,696.1L468.7,549c7.9-4.8,18.2-3.2,24.3,3.8l218.2,250.9c1,1.1,0.8,2.8-0.3,3.7c-0.6,0.5-1.5,0.8-2.3,0.6
	L226,700.9c-1.4-0.3-2.3-1.7-2-3.1C224.2,697.1,224.6,696.5,225.2,696.1z"/>
</svg>
