<svg id="b8ce0917-79ae-4875-bfb0-e0ef48cf483c" xmlns="http://www.w3.org/2000/svg" viewBox="0 0 622 319"><defs><style>.cls-1{fill:#1b1b1b;}.cls-2{fill:#fff;}.cls-3{fill:#ff6584;}.cls-4{fill:#f0473e;}</style></defs><rect class="cls-1" width="622" height="319"/><path class="cls-2" d="M266.6,175.7h-129a1.54,1.54,0,0,1-1.5-1.5h0V122.6a1.54,1.54,0,0,1,1.5-1.5h129a1.54,1.54,0,0,1,1.5,1.5h0v51.6a1.47,1.47,0,0,1-1.5,1.5Zm-127.5-2.9h126V124.1h-126Z"/><path class="cls-2" d="M192.5,209.6H137.7a1.54,1.54,0,0,1-1.5-1.5h0V186.2a1.54,1.54,0,0,1,1.5-1.5h54.8a1.54,1.54,0,0,1,1.5,1.5h0v21.9a1.61,1.61,0,0,1-1.5,1.5Zm-53.4-2.9H191v-19H139.1Z"/><path class="cls-2" d="M266.6,209.6H211.8a1.54,1.54,0,0,1-1.5-1.5h0V186.2a1.54,1.54,0,0,1,1.5-1.5h54.8a1.54,1.54,0,0,1,1.5,1.5h0v21.9a1.54,1.54,0,0,1-1.5,1.5Zm-53.3-2.9h51.9v-19H213.3Z"/><path class="cls-2" d="M265,174.1a.75.75,0,0,1-.5-.1L137.2,124a1.46,1.46,0,0,1,1.1-2.7l127.3,50a1.4,1.4,0,0,1,.8,1.9,1.42,1.42,0,0,1-1.4.9Z"/><path class="cls-2" d="M137.7,175.7a1.54,1.54,0,0,1-1.5-1.5,1.69,1.69,0,0,1,.9-1.4l129-51.6a1.46,1.46,0,0,1,1.1,2.7l-129,51.6A.55.55,0,0,1,137.7,175.7Z"/><path class="cls-2" d="M191.7,208.8a.75.75,0,0,1-.5-.1l-53.2-21a1.46,1.46,0,1,1,1.1-2.7l53.2,21a1.4,1.4,0,0,1,.8,1.9,1.69,1.69,0,0,1-1.4.9Z"/><path class="cls-2" d="M138.5,208.8a1.54,1.54,0,0,1-1.5-1.5,1.5,1.5,0,0,1,1-1.4l53.2-19.3a1.49,1.49,0,1,1,1,2.8h0L139,208.7A1.09,1.09,0,0,1,138.5,208.8Z"/><path class="cls-2" d="M265.8,208.8a.9.9,0,0,1-.5-.1l-51.6-19.3a1.49,1.49,0,1,1,1-2.8l51.6,19.3a1.53,1.53,0,0,1,.9,1.9A1.5,1.5,0,0,1,265.8,208.8Z"/><path class="cls-2" d="M214.2,207.2a1.54,1.54,0,0,1-1.5-1.5,1.5,1.5,0,0,1,1-1.4l51.6-17.7a1.49,1.49,0,0,1,1,2.8h0l-51.6,17.7A4.33,4.33,0,0,1,214.2,207.2Z"/><path class="cls-2" d="M58.1,93.5A21.9,21.9,0,1,1,80,71.6h0A22,22,0,0,1,58.1,93.5Zm0-40.9a19,19,0,1,0,19,19h0a19.06,19.06,0,0,0-19-19Z"/><path class="cls-2" d="M202.7,93.5a21.9,21.9,0,1,1,21.9-22A21.89,21.89,0,0,1,202.7,93.5Zm0-40.9a19,19,0,1,0,19,19h0a19.12,19.12,0,0,0-19-19Z"/><path class="cls-2" d="M382.3,93.5a21.9,21.9,0,1,1,21.9-21.9A21.89,21.89,0,0,1,382.3,93.5Zm0-40.9a19,19,0,1,0,19,19h0a19,19,0,0,0-19-19Z"/><path class="cls-2" d="M570.5,93.5a21.9,21.9,0,1,1,21.9-21.9A21.89,21.89,0,0,1,570.5,93.5Zm0-40.9a19,19,0,1,0,19,19,19,19,0,0,0-19-19Z"/><path class="cls-2" d="M198.8,78.3V77.2l1.4-1.4c3.4-3.2,4.9-5,5-7a2.37,2.37,0,0,0-2.1-2.6h-.5a4.3,4.3,0,0,0-2.8,1.1l-.6-1.3a5.94,5.94,0,0,1,3.8-1.4,3.73,3.73,0,0,1,4.1,3.4v.5c0,2.5-1.8,4.4-4.6,7.1l-1.1,1h6v1.5Z"/><path class="cls-2" d="M57.6,66.6h0l-2.4,1.2-.3-1.4,2.9-1.6h1.5V78.1H57.6Z"/><path class="cls-2" d="M571.8,78.2V74.6h-6.2V73.4l5.9-8.5h1.9v8.3h1.9v1.4h-1.9v3.6Zm0-5V68.8a14.77,14.77,0,0,1,.1-2.1h-.1a18,18,0,0,1-1.1,2l-3.3,4.5h4.4Z"/><path class="cls-2" d="M380,76.1a6,6,0,0,0,2.9.8c2.3,0,3-1.5,3-2.6,0-1.9-1.7-2.7-3.4-2.7h-1V70.2h1c1.3,0,3-.7,3-2.3,0-1.1-.7-2-2.3-2a4.39,4.39,0,0,0-2.7.9l-.5-1.3a6,6,0,0,1,3.5-1c2.6,0,3.8,1.6,3.8,3.2a3.11,3.11,0,0,1-2.5,3.1h0a3.45,3.45,0,0,1,3,3.4c0,2.1-1.7,4-4.8,4a7.3,7.3,0,0,1-3.5-.9Z"/><path class="cls-2" d="M450.6,208.1h-129a1.54,1.54,0,0,1-1.5-1.5h0V124.1a1.54,1.54,0,0,1,1.5-1.5h129a1.54,1.54,0,0,1,1.5,1.5h0v82.5a1.42,1.42,0,0,1-1.5,1.5Zm-127.5-2.9h126V125.6h-126Z"/><path class="cls-2" d="M427.6,140.9H348.7a1.5,1.5,0,0,1,0-3h78.9a1.5,1.5,0,0,1,0,3Z"/><path class="cls-2" d="M427.6,154.1H348.7a1.5,1.5,0,0,1,0-3h78.9a1.5,1.5,0,0,1,0,3Z"/><path class="cls-2" d="M427.6,167.2H348.7a1.5,1.5,0,0,1,0-3h78.9a1.5,1.5,0,0,1,0,3Z"/><path class="cls-2" d="M427.6,180.4H348.7a1.5,1.5,0,0,1,0-3h78.9a1.5,1.5,0,0,1,0,3Z"/><path class="cls-2" d="M427.6,193.5H348.7a1.5,1.5,0,0,1,0-3h78.9a1.5,1.5,0,0,1,0,3Z"/><path class="cls-2" d="M27.9,126.7a1.5,1.5,0,1,0-1.4-1.4A1.37,1.37,0,0,0,27.9,126.7Z"/><path class="cls-2" d="M27.9,142.8a1.5,1.5,0,1,0-1.4-1.4A1.37,1.37,0,0,0,27.9,142.8Z"/><path class="cls-2" d="M27.9,158.9a1.5,1.5,0,1,0-1.4-1.4A1.42,1.42,0,0,0,27.9,158.9Z"/><path class="cls-2" d="M27.9,174.9a1.5,1.5,0,1,0-1.4-1.4A1.37,1.37,0,0,0,27.9,174.9Z"/><path class="cls-2" d="M27.9,191a1.5,1.5,0,1,0-1.4-1.4A1.42,1.42,0,0,0,27.9,191Z"/><path class="cls-2" d="M27.9,207.1a1.5,1.5,0,1,0-1.4-1.4A1.5,1.5,0,0,0,27.9,207.1Z"/><path class="cls-2" d="M88.7,126.7H42a1.5,1.5,0,1,1,0-3H88.7a1.54,1.54,0,0,1,1.5,1.5,1.47,1.47,0,0,1-1.5,1.5Z"/><path class="cls-2" d="M88.7,142.8H42a1.5,1.5,0,0,1,0-3H88.7a1.54,1.54,0,0,1,1.5,1.5,1.47,1.47,0,0,1-1.5,1.5Z"/><path class="cls-2" d="M88.7,158.8H42a1.5,1.5,0,0,1,0-3H88.7a1.54,1.54,0,0,1,1.5,1.5,1.42,1.42,0,0,1-1.5,1.5Z"/><path class="cls-2" d="M88.7,174.9H42a1.5,1.5,0,0,1,0-3H88.7a1.54,1.54,0,0,1,1.5,1.5,1.47,1.47,0,0,1-1.5,1.5Z"/><path class="cls-2" d="M88.7,191H42a1.5,1.5,0,0,1,0-3H88.7a1.54,1.54,0,0,1,1.5,1.5,1.47,1.47,0,0,1-1.5,1.5Z"/><path class="cls-2" d="M88.7,207H42a1.5,1.5,0,0,1,0-3H88.7a1.54,1.54,0,0,1,1.5,1.5,1.42,1.42,0,0,1-1.5,1.5Z"/><path class="cls-2" d="M586.2,213.7H554.8a7.81,7.81,0,0,1-7.8-7.8V125a7.81,7.81,0,0,1,7.8-7.8h3.8a1.54,1.54,0,0,1,1.5,1.5.75.75,0,0,1-.1.5,1.71,1.71,0,0,0,.9,2.1,1.27,1.27,0,0,0,.6.1h17.9a1.58,1.58,0,0,0,1.6-1.6,1.27,1.27,0,0,0-.1-.6,1.52,1.52,0,0,1,.8-1.9,1.27,1.27,0,0,1,.6-.1h4.1a7.81,7.81,0,0,1,7.8,7.8v80.9A8.05,8.05,0,0,1,586.2,213.7ZM554.8,120a4.91,4.91,0,0,0-4.9,4.9v80.9a4.91,4.91,0,0,0,4.9,4.9h31.4a4.91,4.91,0,0,0,4.9-4.9V125a4.91,4.91,0,0,0-4.9-4.9h-2.4a4.49,4.49,0,0,1-4.5,4.2H561.4a4.49,4.49,0,0,1-4.5-4.2h-2.1Z"/><path class="cls-2" d="M524,167.2H483.1a1.5,1.5,0,0,1,0-3h37.4l-8.5-8.5a1.48,1.48,0,1,1,2.1-2.1l11,11a1.45,1.45,0,0,1,0,2.1A1.53,1.53,0,0,1,524,167.2Z"/><path class="cls-2" d="M513.7,177.5a1.49,1.49,0,0,1-1.1-2.5l10.2-10.2a1.48,1.48,0,0,1,2.1,2.1h0L514.8,177A1.61,1.61,0,0,1,513.7,177.5Z"/><path class="cls-3" d="M596,290.2H548.2a164.75,164.75,0,0,1,0-56.9H596A102,102,0,0,0,596,290.2Z"/><path class="cls-4" d="M330.8,280.4h47.8a164.75,164.75,0,0,0,0-56.9H330.8A102,102,0,0,1,330.8,280.4Z"/><path class="cls-4" d="M403.5,296.4h47.8a164.75,164.75,0,0,0,0-56.9H403.5A102,102,0,0,1,403.5,296.4Z"/><path class="cls-2" d="M371,240H341.9c-.5,0-.9-.7-.9-1.5s.4-1.5.9-1.5H371c.5,0,.9.7.9,1.5S371.5,240,371,240Z"/><path class="cls-2" d="M371,253.6H341.9c-.5,0-.9-.7-.9-1.5s.4-1.5.9-1.5H371c.5,0,.9.7.9,1.5S371.5,253.6,371,253.6Z"/><path class="cls-2" d="M443.7,262.2H414.6c-.5,0-.9-.7-.9-1.5s.4-1.5.9-1.5h29.1c.5,0,.9.7.9,1.5S444.2,262.2,443.7,262.2Z"/><path class="cls-2" d="M443.7,275.7H414.6c-.5,0-.9-.7-.9-1.5s.4-1.5.9-1.5h29.1c.5,0,.9.7.9,1.5S444.2,275.7,443.7,275.7Z"/><path class="cls-2" d="M585.4,248.6H556.3c-.5,0-.9-.7-.9-1.5s.4-1.5.9-1.5h29.1c.5,0,.9.7.9,1.5S585.9,248.6,585.4,248.6Z"/><path class="cls-2" d="M585.4,262.2H556.3c-.5,0-.9-.7-.9-1.5s.4-1.5.9-1.5h29.1c.5,0,.9.7.9,1.5S585.9,262.2,585.4,262.2Z"/><path class="cls-2" d="M371,267.1H341.9c-.5,0-.9-.7-.9-1.5s.4-1.5.9-1.5H371c.5,0,.9.7.9,1.5S371.5,267.1,371,267.1Z"/><path class="cls-4" d="M90.6,281.6h47.8a164.75,164.75,0,0,0,0-56.9H90.6A102,102,0,0,1,90.6,281.6Z"/><path class="cls-2" d="M130.9,241.3H101.8c-.5,0-.9-.7-.9-1.5s.4-1.5.9-1.5h29.1c.5,0,.9.7.9,1.5S131.4,241.3,130.9,241.3Z"/><path class="cls-2" d="M130.9,254.8H101.8c-.5,0-.9-.7-.9-1.5s.4-1.5.9-1.5h29.1c.5,0,.9.7.9,1.5S131.4,254.8,130.9,254.8Z"/><path class="cls-2" d="M130.9,268.4H101.8c-.5,0-.9-.7-.9-1.5s.4-1.5.9-1.5h29.1c.5,0,.9.7.9,1.5S131.4,268.4,130.9,268.4Z"/></svg>