<svg id="Layer_2" data-name="Layer 2" xmlns="http://www.w3.org/2000/svg" viewBox="0 0 184 184"><defs><style>.cls-1{fill:#f0473e;}</style></defs><circle class="cls-1" cx="2" cy="2" r="2"/><circle class="cls-1" cx="22" cy="2" r="2"/><circle class="cls-1" cx="42" cy="2" r="2"/><circle class="cls-1" cx="62" cy="2" r="2"/><circle class="cls-1" cx="82" cy="2" r="2"/><circle class="cls-1" cx="102" cy="2" r="2"/><circle class="cls-1" cx="122" cy="2" r="2"/><circle class="cls-1" cx="142" cy="2" r="2"/><circle class="cls-1" cx="162" cy="2" r="2"/><circle class="cls-1" cx="182" cy="2" r="2"/><circle class="cls-1" cx="2" cy="22" r="2"/><circle class="cls-1" cx="22" cy="22" r="2"/><circle class="cls-1" cx="42" cy="22" r="2"/><circle class="cls-1" cx="62" cy="22" r="2"/><circle class="cls-1" cx="82" cy="22" r="2"/><circle class="cls-1" cx="102" cy="22" r="2"/><circle class="cls-1" cx="122" cy="22" r="2"/><circle class="cls-1" cx="142" cy="22" r="2"/><circle class="cls-1" cx="162" cy="22" r="2"/><circle class="cls-1" cx="182" cy="22" r="2"/><circle class="cls-1" cx="2" cy="42" r="2"/><circle class="cls-1" cx="22" cy="42" r="2"/><circle class="cls-1" cx="42" cy="42" r="2"/><circle class="cls-1" cx="62" cy="42" r="2"/><circle class="cls-1" cx="82" cy="42" r="2"/><circle class="cls-1" cx="102" cy="42" r="2"/><circle class="cls-1" cx="122" cy="42" r="2"/><circle class="cls-1" cx="142" cy="42" r="2"/><circle class="cls-1" cx="162" cy="42" r="2"/><circle class="cls-1" cx="182" cy="42" r="2"/><circle class="cls-1" cx="2" cy="62" r="2"/><circle class="cls-1" cx="22" cy="62" r="2"/><circle class="cls-1" cx="42" cy="62" r="2"/><circle class="cls-1" cx="62" cy="62" r="2"/><circle class="cls-1" cx="82" cy="62" r="2"/><circle class="cls-1" cx="102" cy="62" r="2"/><circle class="cls-1" cx="122" cy="62" r="2"/><circle class="cls-1" cx="142" cy="62" r="2"/><circle class="cls-1" cx="162" cy="62" r="2"/><circle class="cls-1" cx="182" cy="62" r="2"/><circle class="cls-1" cx="2" cy="82" r="2"/><circle class="cls-1" cx="22" cy="82" r="2"/><circle class="cls-1" cx="42" cy="82" r="2"/><circle class="cls-1" cx="62" cy="82" r="2"/><circle class="cls-1" cx="82" cy="82" r="2"/><circle class="cls-1" cx="102" cy="82" r="2"/><circle class="cls-1" cx="122" cy="82" r="2"/><circle class="cls-1" cx="142" cy="82" r="2"/><circle class="cls-1" cx="162" cy="82" r="2"/><circle class="cls-1" cx="182" cy="82" r="2"/><circle class="cls-1" cx="2" cy="102" r="2"/><circle class="cls-1" cx="22" cy="102" r="2"/><circle class="cls-1" cx="42" cy="102" r="2"/><circle class="cls-1" cx="62" cy="102" r="2"/><circle class="cls-1" cx="82" cy="102" r="2"/><circle class="cls-1" cx="102" cy="102" r="2"/><circle class="cls-1" cx="122" cy="102" r="2"/><circle class="cls-1" cx="142" cy="102" r="2"/><circle class="cls-1" cx="162" cy="102" r="2"/><circle class="cls-1" cx="182" cy="102" r="2"/><circle class="cls-1" cx="2" cy="122" r="2"/><circle class="cls-1" cx="22" cy="122" r="2"/><circle class="cls-1" cx="42" cy="122" r="2"/><circle class="cls-1" cx="62" cy="122" r="2"/><circle class="cls-1" cx="82" cy="122" r="2"/><circle class="cls-1" cx="102" cy="122" r="2"/><circle class="cls-1" cx="122" cy="122" r="2"/><circle class="cls-1" cx="142" cy="122" r="2"/><circle class="cls-1" cx="162" cy="122" r="2"/><circle class="cls-1" cx="182" cy="122" r="2"/><circle class="cls-1" cx="2" cy="142" r="2"/><circle class="cls-1" cx="22" cy="142" r="2"/><circle class="cls-1" cx="42" cy="142" r="2"/><circle class="cls-1" cx="62" cy="142" r="2"/><circle class="cls-1" cx="82" cy="142" r="2"/><circle class="cls-1" cx="102" cy="142" r="2"/><circle class="cls-1" cx="122" cy="142" r="2"/><circle class="cls-1" cx="142" cy="142" r="2"/><circle class="cls-1" cx="162" cy="142" r="2"/><circle class="cls-1" cx="182" cy="142" r="2"/><circle class="cls-1" cx="2" cy="162" r="2"/><circle class="cls-1" cx="22" cy="162" r="2"/><circle class="cls-1" cx="42" cy="162" r="2"/><circle class="cls-1" cx="62" cy="162" r="2"/><circle class="cls-1" cx="82" cy="162" r="2"/><circle class="cls-1" cx="102" cy="162" r="2"/><circle class="cls-1" cx="122" cy="162" r="2"/><circle class="cls-1" cx="142" cy="162" r="2"/><circle class="cls-1" cx="162" cy="162" r="2"/><circle class="cls-1" cx="182" cy="162" r="2"/><circle class="cls-1" cx="2" cy="182" r="2"/><circle class="cls-1" cx="22" cy="182" r="2"/><circle class="cls-1" cx="42" cy="182" r="2"/><circle class="cls-1" cx="62" cy="182" r="2"/><circle class="cls-1" cx="82" cy="182" r="2"/><circle class="cls-1" cx="102" cy="182" r="2"/><circle class="cls-1" cx="122" cy="182" r="2"/><circle class="cls-1" cx="142" cy="182" r="2"/><circle class="cls-1" cx="162" cy="182" r="2"/><circle class="cls-1" cx="182" cy="182" r="2"/></svg>