<?xml version="1.0" encoding="utf-8"?>
<!-- Generator: Adobe Illustrator 24.2.3, SVG Export Plug-In . SVG Version: 6.00 Build 0)  -->
<svg version="1.1" id="Layer_1" xmlns="http://www.w3.org/2000/svg" xmlns:xlink="http://www.w3.org/1999/xlink" x="0px" y="0px"
	 viewBox="0 0 293 289" style="enable-background:new 0 0 293 289;" xml:space="preserve">
<style type="text/css">
	.st0{fill:#F0473E;}
</style>
<path class="st0" d="M10,4h2v8h-2V4z"/>
<path class="st0" d="M7,7h8v2H7V7z M40,4h2v8h-2V4z"/>
<path class="st0" d="M37,7h8v2h-8V7z M70,4h2v8h-2V4z"/>
<path class="st0" d="M67,7h8v2h-8V7z M100,4h2v8h-2V4z"/>
<path class="st0" d="M97,7h8v2h-8V7z M130,4h2v8h-2V4z"/>
<path class="st0" d="M127,7h8v2h-8V7z M160,4h2v8h-2V4z"/>
<path class="st0" d="M157,7h8v2h-8V7z M190,4h2v8h-2V4z"/>
<path class="st0" d="M187,7h8v2h-8V7z M220,4h2v8h-2V4z"/>
<path class="st0" d="M217,7h8v2h-8V7z M250,4h2v8h-2V4z"/>
<path class="st0" d="M247,7h8v2h-8V7z M280,4h2v8h-2V4z"/>
<path class="st0" d="M277,7h8v2h-8V7z M10,34h2v8h-2V34z"/>
<path class="st0" d="M7,37h8v2H7V37z M40,34h2v8h-2V34z"/>
<path class="st0" d="M37,37h8v2h-8V37z M70,34h2v8h-2V34z"/>
<path class="st0" d="M67,37h8v2h-8V37z M100,34h2v8h-2V34z"/>
<path class="st0" d="M97,37h8v2h-8V37z M130,34h2v8h-2V34z"/>
<path class="st0" d="M127,37h8v2h-8V37z M160,34h2v8h-2V34z"/>
<path class="st0" d="M157,37h8v2h-8V37z M190,34h2v8h-2V34z"/>
<path class="st0" d="M187,37h8v2h-8V37z M220,34h2v8h-2V34z"/>
<path class="st0" d="M217,37h8v2h-8V37z M250,34h2v8h-2V34z"/>
<path class="st0" d="M247,37h8v2h-8V37z M280,34h2v8h-2V34z"/>
<path class="st0" d="M277,37h8v2h-8V37z M10,64h2v8h-2V64z"/>
<path class="st0" d="M7,67h8v2H7V67z M40,64h2v8h-2V64z"/>
<path class="st0" d="M37,67h8v2h-8V67z M70,64h2v8h-2V64z"/>
<path class="st0" d="M67,67h8v2h-8V67z M100,64h2v8h-2V64z"/>
<path class="st0" d="M97,67h8v2h-8V67z M130,64h2v8h-2V64z"/>
<path class="st0" d="M127,67h8v2h-8V67z M160,64h2v8h-2V64z"/>
<path class="st0" d="M157,67h8v2h-8V67z M190,64h2v8h-2V64z"/>
<path class="st0" d="M187,67h8v2h-8V67z M220,64h2v8h-2V64z"/>
<path class="st0" d="M217,67h8v2h-8V67z M250,64h2v8h-2V64z"/>
<path class="st0" d="M247,67h8v2h-8V67z M280,64h2v8h-2V64z"/>
<path class="st0" d="M277,67h8v2h-8V67z M10,94h2v8h-2V94z"/>
<path class="st0" d="M7,97h8v2H7V97z M40,94h2v8h-2V94z"/>
<path class="st0" d="M37,97h8v2h-8V97z M70,94h2v8h-2V94z"/>
<path class="st0" d="M67,97h8v2h-8V97z M100,94h2v8h-2V94z"/>
<path class="st0" d="M97,97h8v2h-8V97z M130,94h2v8h-2V94z"/>
<path class="st0" d="M127,97h8v2h-8V97z M160,94h2v8h-2V94z"/>
<path class="st0" d="M157,97h8v2h-8V97z M190,94h2v8h-2V94z"/>
<path class="st0" d="M187,97h8v2h-8V97z M220,94h2v8h-2V94z"/>
<path class="st0" d="M217,97h8v2h-8V97z M250,94h2v8h-2V94z"/>
<path class="st0" d="M247,97h8v2h-8V97z M280,94h2v8h-2V94z"/>
<path class="st0" d="M277,97h8v2h-8V97z M10,124h2v8h-2V124z"/>
<path class="st0" d="M7,127h8v2H7V127z M40,124h2v8h-2V124z"/>
<path class="st0" d="M37,127h8v2h-8V127z M70,124h2v8h-2V124z"/>
<path class="st0" d="M67,127h8v2h-8V127z M100,124h2v8h-2V124z"/>
<path class="st0" d="M97,127h8v2h-8V127z M130,124h2v8h-2V124z"/>
<path class="st0" d="M127,127h8v2h-8V127z M160,124h2v8h-2V124z"/>
<path class="st0" d="M157,127h8v2h-8V127z M190,124h2v8h-2V124z"/>
<path class="st0" d="M187,127h8v2h-8V127z M220,124h2v8h-2V124z"/>
<path class="st0" d="M217,127h8v2h-8V127z M250,124h2v8h-2V124z"/>
<path class="st0" d="M247,127h8v2h-8V127z M280,124h2v8h-2V124z"/>
<path class="st0" d="M277,127h8v2h-8V127z M10,154h2v8h-2V154z"/>
<path class="st0" d="M7,157h8v2H7V157z M40,154h2v8h-2V154z"/>
<path class="st0" d="M37,157h8v2h-8V157z M70,154h2v8h-2V154z"/>
<path class="st0" d="M67,157h8v2h-8V157z M100,154h2v8h-2V154z"/>
<path class="st0" d="M97,157h8v2h-8V157z M130,154h2v8h-2V154z"/>
<path class="st0" d="M127,157h8v2h-8V157z M160,154h2v8h-2V154z"/>
<path class="st0" d="M157,157h8v2h-8V157z M190,154h2v8h-2V154z"/>
<path class="st0" d="M187,157h8v2h-8V157z M220,154h2v8h-2V154z"/>
<path class="st0" d="M217,157h8v2h-8V157z M250,154h2v8h-2V154z"/>
<path class="st0" d="M247,157h8v2h-8V157z M280,154h2v8h-2V154z"/>
<path class="st0" d="M277,157h8v2h-8V157z M10,184h2v8h-2V184z"/>
<path class="st0" d="M7,187h8v2H7V187z M40,184h2v8h-2V184z"/>
<path class="st0" d="M37,187h8v2h-8V187z M70,184h2v8h-2V184z"/>
<path class="st0" d="M67,187h8v2h-8V187z M100,184h2v8h-2V184z"/>
<path class="st0" d="M97,187h8v2h-8V187z M130,184h2v8h-2V184z"/>
<path class="st0" d="M127,187h8v2h-8V187z M160,184h2v8h-2V184z"/>
<path class="st0" d="M157,187h8v2h-8V187z M190,184h2v8h-2V184z"/>
<path class="st0" d="M187,187h8v2h-8V187z M220,184h2v8h-2V184z"/>
<path class="st0" d="M217,187h8v2h-8V187z M250,184h2v8h-2V184z"/>
<path class="st0" d="M247,187h8v2h-8V187z M280,184h2v8h-2V184z"/>
<path class="st0" d="M277,187h8v2h-8V187z M10,214h2v8h-2V214z"/>
<path class="st0" d="M7,217h8v2H7V217z M40,214h2v8h-2V214z"/>
<path class="st0" d="M37,217h8v2h-8V217z M70,214h2v8h-2V214z"/>
<path class="st0" d="M67,217h8v2h-8V217z M100,214h2v8h-2V214z"/>
<path class="st0" d="M97,217h8v2h-8V217z M130,214h2v8h-2V214z"/>
<path class="st0" d="M127,217h8v2h-8V217z M160,214h2v8h-2V214z"/>
<path class="st0" d="M157,217h8v2h-8V217z M190,214h2v8h-2V214z"/>
<path class="st0" d="M187,217h8v2h-8V217z M220,214h2v8h-2V214z"/>
<path class="st0" d="M217,217h8v2h-8V217z M250,214h2v8h-2V214z"/>
<path class="st0" d="M247,217h8v2h-8V217z M280,214h2v8h-2V214z"/>
<path class="st0" d="M277,217h8v2h-8V217z M10,244h2v8h-2V244z"/>
<path class="st0" d="M7,247h8v2H7V247z M40,244h2v8h-2V244z"/>
<path class="st0" d="M37,247h8v2h-8V247z M70,244h2v8h-2V244z"/>
<path class="st0" d="M67,247h8v2h-8V247z M100,244h2v8h-2V244z"/>
<path class="st0" d="M97,247h8v2h-8V247z M130,244h2v8h-2V244z"/>
<path class="st0" d="M127,247h8v2h-8V247z M160,244h2v8h-2V244z"/>
<path class="st0" d="M157,247h8v2h-8V247z M190,244h2v8h-2V244z"/>
<path class="st0" d="M187,247h8v2h-8V247z M220,244h2v8h-2V244z"/>
<path class="st0" d="M217,247h8v2h-8V247z M250,244h2v8h-2V244z"/>
<path class="st0" d="M247,247h8v2h-8V247z M280,244h2v8h-2V244z"/>
<path class="st0" d="M277,247h8v2h-8V247z M10,274h2v8h-2V274z"/>
<path class="st0" d="M7,277h8v2H7V277z M40,274h2v8h-2V274z"/>
<path class="st0" d="M37,277h8v2h-8V277z M70,274h2v8h-2V274z"/>
<path class="st0" d="M67,277h8v2h-8V277z M100,274h2v8h-2V274z"/>
<path class="st0" d="M97,277h8v2h-8V277z M130,274h2v8h-2V274z"/>
<path class="st0" d="M127,277h8v2h-8V277z M160,274h2v8h-2V274z"/>
<path class="st0" d="M157,277h8v2h-8V277z M190,274h2v8h-2V274z"/>
<path class="st0" d="M187,277h8v2h-8V277z M220,274h2v8h-2V274z"/>
<path class="st0" d="M217,277h8v2h-8V277z M250,274h2v8h-2V274z"/>
<path class="st0" d="M247,277h8v2h-8V277z M280,274h2v8h-2V274z"/>
<path class="st0" d="M277,277h8v2h-8V277z"/>
</svg>
