<?xml version="1.0" encoding="utf-8"?>
<!-- Generator: Adobe Illustrator 24.2.3, SVG Export Plug-In . SVG Version: 6.00 Build 0)  -->
<svg version="1.1" xmlns="http://www.w3.org/2000/svg" xmlns:xlink="http://www.w3.org/1999/xlink" x="0px" y="0px"
	 viewBox="0 0 189.4 186" style="enable-background:new 0 0 189.4 186;" xml:space="preserve">
<style type="text/css">
	.st0{display:none;}
	.st1{display:inline;fill:#D61712;}
	.st2{display:inline;fill:#F0473E;}
	.st3{fill:#F0473E;}
</style>
<g id="Layer_1" class="st0">
	<circle class="st1" cx="2" cy="2" r="2"/>
	<circle class="st1" cx="22" cy="2" r="2"/>
	<circle class="st1" cx="42" cy="2" r="2"/>
	<circle class="st1" cx="62" cy="2" r="2"/>
	<circle class="st1" cx="82" cy="2" r="2"/>
	<circle class="st1" cx="102" cy="2" r="2"/>
	<circle class="st1" cx="122" cy="2" r="2"/>
	<circle class="st1" cx="142" cy="2" r="2"/>
	<circle class="st1" cx="162" cy="2" r="2"/>
	<circle class="st1" cx="182" cy="2" r="2"/>
	<circle class="st1" cx="2" cy="22" r="2"/>
	<circle class="st1" cx="22" cy="22" r="2"/>
	<circle class="st1" cx="42" cy="22" r="2"/>
	<circle class="st1" cx="62" cy="22" r="2"/>
	<circle class="st1" cx="82" cy="22" r="2"/>
	<circle class="st1" cx="102" cy="22" r="2"/>
	<circle class="st1" cx="122" cy="22" r="2"/>
	<circle class="st1" cx="142" cy="22" r="2"/>
	<circle class="st1" cx="162" cy="22" r="2"/>
	<circle class="st1" cx="182" cy="22" r="2"/>
	<circle class="st1" cx="2" cy="42" r="2"/>
	<circle class="st1" cx="22" cy="42" r="2"/>
	<circle class="st1" cx="42" cy="42" r="2"/>
	<circle class="st1" cx="62" cy="42" r="2"/>
	<circle class="st1" cx="82" cy="42" r="2"/>
	<circle class="st1" cx="102" cy="42" r="2"/>
	<circle class="st1" cx="122" cy="42" r="2"/>
	<circle class="st1" cx="142" cy="42" r="2"/>
	<circle class="st1" cx="162" cy="42" r="2"/>
	<circle class="st1" cx="182" cy="42" r="2"/>
	<circle class="st1" cx="2" cy="62" r="2"/>
	<circle class="st1" cx="22" cy="62" r="2"/>
	<circle class="st1" cx="42" cy="62" r="2"/>
	<circle class="st1" cx="62" cy="62" r="2"/>
	<circle class="st1" cx="82" cy="62" r="2"/>
	<circle class="st1" cx="102" cy="62" r="2"/>
	<circle class="st1" cx="122" cy="62" r="2"/>
	<circle class="st1" cx="142" cy="62" r="2"/>
	<circle class="st1" cx="162" cy="62" r="2"/>
	<circle class="st1" cx="182" cy="62" r="2"/>
	<circle class="st1" cx="2" cy="82" r="2"/>
	<circle class="st1" cx="22" cy="82" r="2"/>
	<circle class="st1" cx="42" cy="82" r="2"/>
	<circle class="st1" cx="62" cy="82" r="2"/>
	<circle class="st1" cx="82" cy="82" r="2"/>
	<circle class="st1" cx="102" cy="82" r="2"/>
	<circle class="st1" cx="122" cy="82" r="2"/>
	<circle class="st1" cx="142" cy="82" r="2"/>
	<circle class="st1" cx="162" cy="82" r="2"/>
	<circle class="st1" cx="182" cy="82" r="2"/>
	<circle class="st1" cx="2" cy="102" r="2"/>
	<circle class="st1" cx="22" cy="102" r="2"/>
	<circle class="st1" cx="42" cy="102" r="2"/>
	<circle class="st1" cx="62" cy="102" r="2"/>
	<circle class="st1" cx="82" cy="102" r="2"/>
	<circle class="st1" cx="102" cy="102" r="2"/>
	<circle class="st1" cx="122" cy="102" r="2"/>
	<circle class="st1" cx="142" cy="102" r="2"/>
	<circle class="st1" cx="162" cy="102" r="2"/>
	<circle class="st1" cx="182" cy="102" r="2"/>
	<circle class="st1" cx="2" cy="122" r="2"/>
	<circle class="st1" cx="22" cy="122" r="2"/>
	<circle class="st1" cx="42" cy="122" r="2"/>
	<circle class="st1" cx="62" cy="122" r="2"/>
	<circle class="st1" cx="82" cy="122" r="2"/>
	<circle class="st1" cx="102" cy="122" r="2"/>
	<circle class="st1" cx="122" cy="122" r="2"/>
	<circle class="st1" cx="142" cy="122" r="2"/>
	<circle class="st1" cx="162" cy="122" r="2"/>
	<circle class="st1" cx="182" cy="122" r="2"/>
	<circle class="st1" cx="2" cy="142" r="2"/>
	<circle class="st1" cx="22" cy="142" r="2"/>
	<circle class="st1" cx="42" cy="142" r="2"/>
	<circle class="st1" cx="62" cy="142" r="2"/>
	<circle class="st1" cx="82" cy="142" r="2"/>
	<circle class="st1" cx="102" cy="142" r="2"/>
	<circle class="st1" cx="122" cy="142" r="2"/>
	<circle class="st1" cx="142" cy="142" r="2"/>
	<circle class="st1" cx="162" cy="142" r="2"/>
	<circle class="st1" cx="182" cy="142" r="2"/>
	<circle class="st1" cx="2" cy="162" r="2"/>
	<circle class="st1" cx="22" cy="162" r="2"/>
	<circle class="st1" cx="42" cy="162" r="2"/>
	<circle class="st1" cx="62" cy="162" r="2"/>
	<circle class="st1" cx="82" cy="162" r="2"/>
	<circle class="st1" cx="102" cy="162" r="2"/>
	<circle class="st1" cx="122" cy="162" r="2"/>
	<circle class="st1" cx="142" cy="162" r="2"/>
	<circle class="st1" cx="162" cy="162" r="2"/>
	<circle class="st1" cx="182" cy="162" r="2"/>
	<circle class="st1" cx="2" cy="182" r="2"/>
	<circle class="st1" cx="22" cy="182" r="2"/>
	<circle class="st1" cx="42" cy="182" r="2"/>
	<circle class="st1" cx="62" cy="182" r="2"/>
	<circle class="st1" cx="82" cy="182" r="2"/>
	<circle class="st1" cx="102" cy="182" r="2"/>
	<circle class="st1" cx="122" cy="182" r="2"/>
	<circle class="st1" cx="142" cy="182" r="2"/>
	<circle class="st1" cx="162" cy="182" r="2"/>
	<circle class="st1" cx="182" cy="182" r="2"/>
</g>
<g id="Layer_2">
	<g class="st0">
		<circle class="st2" cx="3.5" cy="3" r="2"/>
		<circle class="st2" cx="23.5" cy="3" r="2"/>
		<circle class="st2" cx="43.5" cy="3" r="2"/>
		<circle class="st2" cx="63.5" cy="3" r="2"/>
		<circle class="st2" cx="83.5" cy="3" r="2"/>
		<circle class="st2" cx="103.5" cy="3" r="2"/>
		<circle class="st2" cx="123.5" cy="3" r="2"/>
		<circle class="st2" cx="143.5" cy="3" r="2"/>
		<circle class="st2" cx="163.5" cy="3" r="2"/>
		<circle class="st2" cx="183.5" cy="3" r="2"/>
		<circle class="st2" cx="3.5" cy="23" r="2"/>
		<circle class="st2" cx="23.5" cy="23" r="2"/>
		<circle class="st2" cx="43.5" cy="23" r="2"/>
		<circle class="st2" cx="63.5" cy="23" r="2"/>
		<circle class="st2" cx="83.5" cy="23" r="2"/>
		<circle class="st2" cx="103.5" cy="23" r="2"/>
		<circle class="st2" cx="123.5" cy="23" r="2"/>
		<circle class="st2" cx="143.5" cy="23" r="2"/>
		<circle class="st2" cx="163.5" cy="23" r="2"/>
		<circle class="st2" cx="183.5" cy="23" r="2"/>
		<circle class="st2" cx="3.5" cy="43" r="2"/>
		<circle class="st2" cx="23.5" cy="43" r="2"/>
		<circle class="st2" cx="43.5" cy="43" r="2"/>
		<circle class="st2" cx="63.5" cy="43" r="2"/>
		<circle class="st2" cx="83.5" cy="43" r="2"/>
		<circle class="st2" cx="103.5" cy="43" r="2"/>
		<circle class="st2" cx="123.5" cy="43" r="2"/>
		<circle class="st2" cx="143.5" cy="43" r="2"/>
		<circle class="st2" cx="163.5" cy="43" r="2"/>
		<circle class="st2" cx="183.5" cy="43" r="2"/>
		<circle class="st2" cx="3.5" cy="63" r="2"/>
		<circle class="st2" cx="23.5" cy="63" r="2"/>
		<circle class="st2" cx="43.5" cy="63" r="2"/>
		<circle class="st2" cx="63.5" cy="63" r="2"/>
		<circle class="st2" cx="83.5" cy="63" r="2"/>
		<circle class="st2" cx="103.5" cy="63" r="2"/>
		<circle class="st2" cx="123.5" cy="63" r="2"/>
		<circle class="st2" cx="143.5" cy="63" r="2"/>
		<circle class="st2" cx="163.5" cy="63" r="2"/>
		<circle class="st2" cx="183.5" cy="63" r="2"/>
		<circle class="st2" cx="3.5" cy="83" r="2"/>
		<circle class="st2" cx="23.5" cy="83" r="2"/>
		<circle class="st2" cx="43.5" cy="83" r="2"/>
		<circle class="st2" cx="63.5" cy="83" r="2"/>
		<circle class="st2" cx="83.5" cy="83" r="2"/>
		<circle class="st2" cx="103.5" cy="83" r="2"/>
		<circle class="st2" cx="123.5" cy="83" r="2"/>
		<circle class="st2" cx="143.5" cy="83" r="2"/>
		<circle class="st2" cx="163.5" cy="83" r="2"/>
		<circle class="st2" cx="183.5" cy="83" r="2"/>
		<circle class="st2" cx="3.5" cy="103" r="2"/>
		<circle class="st2" cx="23.5" cy="103" r="2"/>
		<circle class="st2" cx="43.5" cy="103" r="2"/>
		<circle class="st2" cx="63.5" cy="103" r="2"/>
		<circle class="st2" cx="83.5" cy="103" r="2"/>
		<circle class="st2" cx="103.5" cy="103" r="2"/>
		<circle class="st2" cx="123.5" cy="103" r="2"/>
		<circle class="st2" cx="143.5" cy="103" r="2"/>
		<circle class="st2" cx="163.5" cy="103" r="2"/>
		<circle class="st2" cx="183.5" cy="103" r="2"/>
		<circle class="st2" cx="3.5" cy="123" r="2"/>
		<circle class="st2" cx="23.5" cy="123" r="2"/>
		<circle class="st2" cx="43.5" cy="123" r="2"/>
		<circle class="st2" cx="63.5" cy="123" r="2"/>
		<circle class="st2" cx="83.5" cy="123" r="2"/>
		<circle class="st2" cx="103.5" cy="123" r="2"/>
		<circle class="st2" cx="123.5" cy="123" r="2"/>
		<circle class="st2" cx="143.5" cy="123" r="2"/>
		<circle class="st2" cx="163.5" cy="123" r="2"/>
		<circle class="st2" cx="183.5" cy="123" r="2"/>
		<circle class="st2" cx="3.5" cy="143" r="2"/>
		<circle class="st2" cx="23.5" cy="143" r="2"/>
		<circle class="st2" cx="43.5" cy="143" r="2"/>
		<circle class="st2" cx="63.5" cy="143" r="2"/>
		<circle class="st2" cx="83.5" cy="143" r="2"/>
		<circle class="st2" cx="103.5" cy="143" r="2"/>
		<circle class="st2" cx="123.5" cy="143" r="2"/>
		<circle class="st2" cx="143.5" cy="143" r="2"/>
		<circle class="st2" cx="163.5" cy="143" r="2"/>
		<circle class="st2" cx="183.5" cy="143" r="2"/>
		<circle class="st2" cx="3.5" cy="163" r="2"/>
		<circle class="st2" cx="23.5" cy="163" r="2"/>
		<circle class="st2" cx="43.5" cy="163" r="2"/>
		<circle class="st2" cx="63.5" cy="163" r="2"/>
		<circle class="st2" cx="83.5" cy="163" r="2"/>
		<circle class="st2" cx="103.5" cy="163" r="2"/>
		<circle class="st2" cx="123.5" cy="163" r="2"/>
		<circle class="st2" cx="143.5" cy="163" r="2"/>
		<circle class="st2" cx="163.5" cy="163" r="2"/>
		<circle class="st2" cx="183.5" cy="163" r="2"/>
		<circle class="st2" cx="3.5" cy="183" r="2"/>
		<circle class="st2" cx="23.5" cy="183" r="2"/>
		<circle class="st2" cx="43.5" cy="183" r="2"/>
		<circle class="st2" cx="63.5" cy="183" r="2"/>
		<circle class="st2" cx="83.5" cy="183" r="2"/>
		<circle class="st2" cx="103.5" cy="183" r="2"/>
		<circle class="st2" cx="123.5" cy="183" r="2"/>
		<circle class="st2" cx="143.5" cy="183" r="2"/>
		<circle class="st2" cx="163.5" cy="183" r="2"/>
		<circle class="st2" cx="183.5" cy="183" r="2"/>
	</g>
	<g>
		<g>
			<rect x="1.5" y="1" class="st3" width="3.9" height="3.9"/>
			<rect x="1.5" y="21.1" class="st3" width="3.9" height="3.9"/>
			<rect x="181.6" y="1" class="st3" width="3.9" height="3.9"/>
			<rect x="161.5" y="1" class="st3" width="3.9" height="3.9"/>
			<rect x="141.5" y="1" class="st3" width="3.9" height="3.9"/>
			<rect x="121.5" y="1" class="st3" width="3.9" height="3.9"/>
			<rect x="101.5" y="1" class="st3" width="3.9" height="3.9"/>
			<rect x="81.5" y="1" class="st3" width="3.9" height="3.9"/>
			<rect x="61.5" y="1" class="st3" width="3.9" height="3.9"/>
			<rect x="41.5" y="1" class="st3" width="3.9" height="3.9"/>
			<rect x="21.5" y="1" class="st3" width="3.9" height="3.9"/>
			<rect x="161.5" y="21.1" class="st3" width="3.9" height="3.9"/>
			<rect x="141.5" y="21.1" class="st3" width="3.9" height="3.9"/>
			<rect x="121.5" y="21.1" class="st3" width="3.9" height="3.9"/>
			<rect x="101.5" y="21.1" class="st3" width="3.9" height="3.9"/>
			<rect x="81.5" y="21.1" class="st3" width="3.9" height="3.9"/>
			<rect x="61.5" y="21.1" class="st3" width="3.9" height="3.9"/>
			<rect x="41.5" y="21.1" class="st3" width="3.9" height="3.9"/>
			<rect x="21.5" y="21.1" class="st3" width="3.9" height="3.9"/>
			<rect x="181.6" y="21.1" class="st3" width="3.9" height="3.9"/>
		</g>
		<g>
			<rect x="1.5" y="41" class="st3" width="3.9" height="3.9"/>
			<rect x="1.5" y="61.1" class="st3" width="3.9" height="3.9"/>
			<rect x="181.6" y="41" class="st3" width="3.9" height="3.9"/>
			<rect x="161.5" y="41" class="st3" width="3.9" height="3.9"/>
			<rect x="141.5" y="41" class="st3" width="3.9" height="3.9"/>
			<rect x="121.5" y="41" class="st3" width="3.9" height="3.9"/>
			<rect x="101.5" y="41" class="st3" width="3.9" height="3.9"/>
			<rect x="81.5" y="41" class="st3" width="3.9" height="3.9"/>
			<rect x="61.5" y="41" class="st3" width="3.9" height="3.9"/>
			<rect x="41.5" y="41" class="st3" width="3.9" height="3.9"/>
			<rect x="21.5" y="41" class="st3" width="3.9" height="3.9"/>
			<rect x="161.5" y="61.1" class="st3" width="3.9" height="3.9"/>
			<rect x="141.5" y="61.1" class="st3" width="3.9" height="3.9"/>
			<rect x="121.5" y="61.1" class="st3" width="3.9" height="3.9"/>
			<rect x="101.5" y="61.1" class="st3" width="3.9" height="3.9"/>
			<rect x="81.5" y="61.1" class="st3" width="3.9" height="3.9"/>
			<rect x="61.5" y="61.1" class="st3" width="3.9" height="3.9"/>
			<rect x="41.5" y="61.1" class="st3" width="3.9" height="3.9"/>
			<rect x="21.5" y="61.1" class="st3" width="3.9" height="3.9"/>
			<rect x="181.6" y="61.1" class="st3" width="3.9" height="3.9"/>
		</g>
		<g>
			<rect x="1.5" y="81" class="st3" width="3.9" height="3.9"/>
			<rect x="1.5" y="101.1" class="st3" width="3.9" height="3.9"/>
			<rect x="181.6" y="81" class="st3" width="3.9" height="3.9"/>
			<rect x="161.5" y="81" class="st3" width="3.9" height="3.9"/>
			<rect x="141.5" y="81" class="st3" width="3.9" height="3.9"/>
			<rect x="121.5" y="81" class="st3" width="3.9" height="3.9"/>
			<rect x="101.5" y="81" class="st3" width="3.9" height="3.9"/>
			<rect x="81.5" y="81" class="st3" width="3.9" height="3.9"/>
			<rect x="61.5" y="81" class="st3" width="3.9" height="3.9"/>
			<rect x="41.5" y="81" class="st3" width="3.9" height="3.9"/>
			<rect x="21.5" y="81" class="st3" width="3.9" height="3.9"/>
			<rect x="161.5" y="101.1" class="st3" width="3.9" height="3.9"/>
			<rect x="141.5" y="101.1" class="st3" width="3.9" height="3.9"/>
			<rect x="121.5" y="101.1" class="st3" width="3.9" height="3.9"/>
			<rect x="101.5" y="101.1" class="st3" width="3.9" height="3.9"/>
			<rect x="81.5" y="101.1" class="st3" width="3.9" height="3.9"/>
			<rect x="61.5" y="101.1" class="st3" width="3.9" height="3.9"/>
			<rect x="41.5" y="101.1" class="st3" width="3.9" height="3.9"/>
			<rect x="21.5" y="101.1" class="st3" width="3.9" height="3.9"/>
			<rect x="181.6" y="101.1" class="st3" width="3.9" height="3.9"/>
		</g>
		<g>
			<rect x="1.5" y="121" class="st3" width="3.9" height="3.9"/>
			<rect x="1.5" y="141.1" class="st3" width="3.9" height="3.9"/>
			<rect x="181.6" y="121" class="st3" width="3.9" height="3.9"/>
			<rect x="161.5" y="121" class="st3" width="3.9" height="3.9"/>
			<rect x="141.5" y="121" class="st3" width="3.9" height="3.9"/>
			<rect x="121.5" y="121" class="st3" width="3.9" height="3.9"/>
			<rect x="101.5" y="121" class="st3" width="3.9" height="3.9"/>
			<rect x="81.5" y="121" class="st3" width="3.9" height="3.9"/>
			<rect x="61.5" y="121" class="st3" width="3.9" height="3.9"/>
			<rect x="41.5" y="121" class="st3" width="3.9" height="3.9"/>
			<rect x="21.5" y="121" class="st3" width="3.9" height="3.9"/>
			<rect x="161.5" y="141.1" class="st3" width="3.9" height="3.9"/>
			<rect x="141.5" y="141.1" class="st3" width="3.9" height="3.9"/>
			<rect x="121.5" y="141.1" class="st3" width="3.9" height="3.9"/>
			<rect x="101.5" y="141.1" class="st3" width="3.9" height="3.9"/>
			<rect x="81.5" y="141.1" class="st3" width="3.9" height="3.9"/>
			<rect x="61.5" y="141.1" class="st3" width="3.9" height="3.9"/>
			<rect x="41.5" y="141.1" class="st3" width="3.9" height="3.9"/>
			<rect x="21.5" y="141.1" class="st3" width="3.9" height="3.9"/>
			<rect x="181.6" y="141.1" class="st3" width="3.9" height="3.9"/>
		</g>
		<g>
			<rect x="1.5" y="161" class="st3" width="3.9" height="3.9"/>
			<rect x="1.5" y="181.1" class="st3" width="3.9" height="3.9"/>
			<rect x="181.6" y="161" class="st3" width="3.9" height="3.9"/>
			<rect x="161.5" y="161" class="st3" width="3.9" height="3.9"/>
			<rect x="141.5" y="161" class="st3" width="3.9" height="3.9"/>
			<rect x="121.5" y="161" class="st3" width="3.9" height="3.9"/>
			<rect x="101.5" y="161" class="st3" width="3.9" height="3.9"/>
			<rect x="81.5" y="161" class="st3" width="3.9" height="3.9"/>
			<rect x="61.5" y="161" class="st3" width="3.9" height="3.9"/>
			<rect x="41.5" y="161" class="st3" width="3.9" height="3.9"/>
			<rect x="21.5" y="161" class="st3" width="3.9" height="3.9"/>
			<rect x="161.5" y="181.1" class="st3" width="3.9" height="3.9"/>
			<rect x="141.5" y="181.1" class="st3" width="3.9" height="3.9"/>
			<rect x="121.5" y="181.1" class="st3" width="3.9" height="3.9"/>
			<rect x="101.5" y="181.1" class="st3" width="3.9" height="3.9"/>
			<rect x="81.5" y="181.1" class="st3" width="3.9" height="3.9"/>
			<rect x="61.5" y="181.1" class="st3" width="3.9" height="3.9"/>
			<rect x="41.5" y="181.1" class="st3" width="3.9" height="3.9"/>
			<rect x="21.5" y="181.1" class="st3" width="3.9" height="3.9"/>
			<rect x="181.6" y="181.1" class="st3" width="3.9" height="3.9"/>
		</g>
	</g>
</g>
</svg>
